<svg width="140" height="46" viewBox="0 0 140 46" xmlns="http://www.w3.org/2000/svg" xmlns:xlink="http://www.w3.org/1999/xlink">
    <defs>
        <filter x="-2.5%" y="-10.4%" width="105.1%" height="129.2%" filterUnits="objectBoundingBox" id="dhusv0liua">
            <feOffset dy="1" in="SourceAlpha" result="shadowOffsetOuter1"/>
            <feGaussianBlur stdDeviation="1" in="shadowOffsetOuter1" result="shadowBlurOuter1"/>
            <feColorMatrix values="0 0 0 0 0 0 0 0 0 0 0 0 0 0 0 0 0 0 0.2 0" in="shadowBlurOuter1"/>
        </filter>
        <path d="M14.614 26.38h6.852c-2.653 6.096-14.43 4.42-15.055-3.092-.28-6.741 10.216-10.645 15.605-3.752.933-.738 2.726-2.055 4.147-3.128C19.032 6.758.727 10.831.008 22.242c-.271 7.914 6.32 12.158 12.74 12.71 10.456.664 14.744-5.843 15.183-9.51 0-.81.036-3.606.036-3.606H14.614v4.544zm21.188-2.867c.06-.83.888-3.237 4.52-3.237 3.359 0 3.937 2.48 4.197 3.237h-8.717zm4.359-6.753c-2.23-.1-5.88.65-8.427 3.111-1.598 1.557-2.899 3.642-2.424 7.266.869 6.301 7.579 7.321 8.34 7.42 7.68 1.059 11.357-2.195 12.974-4.409-.344-.091-5.044-1.347-5.933-1.568-2.46 3.019-6.095 2.099-6.573 1.74-1.73-.773-2.437-2.554-2.37-3.345h15.444c.055-2.007-.19-3.807-1.344-5.527-2.014-2.85-5.127-4.688-9.687-4.688zm56.005 3.111c2.546-2.461 6.196-3.21 8.427-3.111 4.56 0 7.673 1.838 9.687 4.688 1.154 1.72 1.399 3.52 1.344 5.527h-15.445c-.066.79.642 2.572 2.37 3.345.478.359 4.115 1.279 6.574-1.74.889.22 5.589 1.477 5.933 1.568-1.617 2.214-5.295 5.468-12.975 4.408-.76-.098-7.47-1.118-8.339-7.42-.475-3.623.826-5.708 2.424-7.265zm-4.773-8.467v5.798h2.911v4.636h-2.911v12.294h-6.078V21.895H82.99v-4.693h2.325v-5.798h6.078zm13.36 8.872c-3.632 0-4.459 2.407-4.52 3.237h8.718c-.26-.758-.838-3.237-4.198-3.237zm24.631 4.986 7.592-8.024h-7.7l-6.329 6.04V11.153h-6.076V34.52h5.958v-7.194l6.961 7.194 8.736-.118-9.142-9.141zm-52.3-8.863c-3.816-.348-6.69 3.199-7.249 3.823-1.56-3.506-4.602-3.93-5.588-3.85-3.258.119-5.083 2.708-6.005 3.173v-2.794h-5.717v17.517h5.717v-9.26c.046-1.629.866-2.674 1.758-3.29 2.277-1.436 4.739.049 4.813 3.084v9.466h5.618v-9.35s-.09-1.623 1.19-2.802c.84-.873 2.317-1.266 3.576-.715.816.394 1.645 1.298 1.761 2.977v9.89h5.671v-11.45c-.28-4.729-3.928-6.384-5.545-6.419" id="9t8wpya1zb"/>
    </defs>
    <g fill="none" fill-rule="evenodd">
        <use fill="#000" filter="url(#dhusv0liua)" xlink:href="#9t8wpya1zb"/>
        <use fill="#FEFEFE" xlink:href="#9t8wpya1zb"/>
    </g>
</svg>
