<svg width="24" height="24" viewBox="0 0 24 24" xmlns="http://www.w3.org/2000/svg">
    <path d="M12 6c5.523 0 10 4.397 10 6 0 1.603-4.477 6-10 6S2 13.596 2 12s4.477-6 10-6zm0 1c-2.282 0-4.574.839-6.487 2.214C4.026 10.282 3 11.574 3 12c0 .426 1.026 1.718 2.513 2.786C7.426 16.161 9.718 17 12 17c2.283 0 4.576-.838 6.488-2.211C19.975 13.721 21 12.429 21 12c0-.43-1.025-1.72-2.512-2.789C16.576 7.838 14.283 7 12 7zm0 1a4 4 0 1 1-3.957 3.41 2 2 0 1 0 1.119-2.226A3.98 3.98 0 0 1 12 8z" fill="#63696F" fill-rule="nonzero"/>
</svg>
