<svg width="24" height="24" viewBox="0 0 24 24" xmlns="http://www.w3.org/2000/svg">
    <path d="M16 3.95a.5.5 0 0 1 .183.683l-1.054 1.828h.003l-.515.894-.004-.001-.665 1.152h.003l-4 6.93-.003-.002-.68 1.179h.003l-.514.891h-.004l-1.07 1.851a.5.5 0 1 1-.866-.5l.974-1.689C4.37 15.81 2 13.161 2 12c0-1.596 4.477-6 10-6 .726 0 1.434.076 2.117.212l1.2-2.079A.5.5 0 0 1 16 3.95zM22 12c0 1.603-4.477 6-10 6a10.86 10.86 0 0 1-2.237-.237l.53-.915A9.8 9.8 0 0 0 12 17c2.283 0 4.576-.838 6.488-2.211C19.975 13.721 21 12.429 21 12c0-.43-1.025-1.72-2.512-2.789a12.266 12.266 0 0 0-2.895-1.545l.506-.876C19.578 8.13 22 10.82 22 12zM12 7c-2.282 0-4.574.839-6.487 2.214C4.026 10.282 3 11.574 3 12c0 .426 1.026 1.718 2.513 2.786.863.62 1.803 1.132 2.784 1.506l.856-1.483a4 4 0 0 1 3.857-6.68l.575-.998A9.78 9.78 0 0 0 12 7zm4 5a4 4 0 0 1-5.126 3.84l3.888-6.733A3.989 3.989 0 0 1 16 12z" fill="#63696F" fill-rule="nonzero"/>
</svg>
