<svg width="24" height="24" viewBox="0 0 24 24" xmlns="http://www.w3.org/2000/svg">
    <path d="m14.985 10.178-.736.736c-1.532-.9-3.535-.707-4.85.607L6.571 14.35a4.005 4.005 0 0 0 0 5.656 4.005 4.005 0 0 0 5.657 0l2.828-2.828c1.043-1.042 1.372-2.517 1.021-3.85l.8-.798c.695 1.793.328 3.913-1.114 5.355l-2.828 2.829a5.015 5.015 0 0 1-7.071 0 5.015 5.015 0 0 1 0-7.072l.162-.16 1.148-1.139.315-.312c.68-.676 1.322-1.311 1.343-1.33a5.013 5.013 0 0 1 6.153-.523zm2.9-7.142a5.015 5.015 0 0 1 0 7.07l-.01.011-.152.15-1.148 1.139-.315.312-1.291 1.28-.052.05a5.01 5.01 0 0 1-6.152.522l.735-.735c1.533.9 3.536.707 4.85-.607l2.828-2.829a4.004 4.004 0 0 0 0-5.656 4.004 4.004 0 0 0-5.657 0L8.693 6.57C7.65 7.613 7.32 9.088 7.672 10.421l-.8.799c-.694-1.794-.328-3.914 1.114-5.356l2.828-2.828a5.015 5.015 0 0 1 7.071 0z" fill="#97CB0D" stroke="#97CB0D" stroke-width=".5" fill-rule="evenodd"/>
</svg>
