<svg width="60" height="60" viewBox="0 0 60 60" xmlns="http://www.w3.org/2000/svg">
    <g fill="none" fill-rule="evenodd">
        <circle fill="#E44C4C" cx="30" cy="30" r="30"/>
        <g fill="#FFF" fill-rule="nonzero">
            <path d="M21.9 24.75V40.5a1.35 1.35 0 0 0 1.18 1.34l.17.01h13.5a1.35 1.35 0 0 0 1.34-1.18l.01-.17V24.75h1.8V40.5a3.15 3.15 0 0 1-2.925 3.142l-.225.008h-13.5a3.15 3.15 0 0 1-3.142-2.925L20.1 40.5V24.75h1.8zM40.8 18.75H19.2a1.95 1.95 0 0 0-1.95 1.95v2.1a1.95 1.95 0 0 0 1.95 1.95h21.6a1.95 1.95 0 0 0 1.95-1.95v-2.1a1.95 1.95 0 0 0-1.95-1.95zm-21.6 1.5h21.6a.45.45 0 0 1 .45.45v2.1a.45.45 0 0 1-.45.45H19.2a.45.45 0 0 1-.45-.45v-2.1a.45.45 0 0 1 .45-.45z"/>
            <path d="M30 16.35a3.6 3.6 0 0 1 3.592 3.354l.008.246h-1.2a2.4 2.4 0 0 0-4.79-.218l-.01.218h-1.2a3.6 3.6 0 0 1 3.6-3.6zM30 27.75a.75.75 0 0 1 .738.615l.012.135v9a.75.75 0 0 1-1.488.135l-.012-.135v-9a.75.75 0 0 1 .75-.75zM25.5 27.75a.75.75 0 0 1 .738.615l.012.135v9a.75.75 0 0 1-1.488.135l-.012-.135v-9a.75.75 0 0 1 .75-.75zM34.5 27.75a.75.75 0 0 1 .738.615l.012.135v9a.75.75 0 0 1-1.488.135l-.012-.135v-9a.75.75 0 0 1 .75-.75z"/>
        </g>
    </g>
</svg>
