<svg width="24" height="24" viewBox="0 0 24 24" xmlns="http://www.w3.org/2000/svg">
    <g fill="none" fill-rule="evenodd">
        <path d="m7.083 9.765 1.202 1.202-2.547 2.549a3.3 3.3 0 0 0 4.667 4.667l2.547-2.549 1.202 1.202-2.547 2.549a5 5 0 1 1-7.071-7.071l2.547-2.549zm12.302-5.23a5 5 0 0 1 0 7.072l-2.049 2.047-1.202-1.202 2.049-2.047a3.3 3.3 0 0 0-4.667-4.667l-2.049 2.047-1.202-1.202 2.049-2.047a5 5 0 0 1 7.07 0z" fill="#FF9C8D" fill-rule="nonzero"/>
        <path stroke="#FF9C8D" stroke-width="1.5" stroke-linecap="square" d="m6.136 5.636 12.728 12.728"/>
    </g>
</svg>
