<svg width="24" height="24" viewBox="0 0 24 24" xmlns="http://www.w3.org/2000/svg">
    <path d="M20.125 14v3.375H22l-3 3-3-3h1.875V14h2.25zm-8.625.722a2.667 2.667 0 1 1 0 5.334 2.667 2.667 0 0 1 0-5.334zm0-3.555c1.803 0 3.397.895 4.363 2.265l-.83.921a4.131 4.131 0 0 0-3.533-1.986 4.131 4.131 0 0 0-3.533 1.986l-.83-.922a5.327 5.327 0 0 1 4.363-2.264zm0-3.556a8.87 8.87 0 0 1 6.777 3.137l-.81.902A7.674 7.674 0 0 0 11.5 8.81a7.674 7.674 0 0 0-5.966 2.839l-.811-.902A8.87 8.87 0 0 1 11.5 7.611zm0-3.555c3.63 0 6.896 1.554 9.171 4.032l-.806.897a11.216 11.216 0 0 0-8.365-3.73c-3.32 0-6.305 1.44-8.364 3.73l-.807-.897A12.412 12.412 0 0 1 11.5 4.056z" fill="#63696F" fill-rule="nonzero"/>
</svg>
