<svg width="24" height="24" viewBox="0 0 24 24" xmlns="http://www.w3.org/2000/svg">
    <g transform="translate(2.5 3)" fill="none" fill-rule="evenodd">
        <path d="M9 0v1H8v1.016A7.501 7.501 0 0 1 14.985 9H15a5.53 5.53 0 0 0-1.014.093 6.5 6.5 0 1 0-4.365 6.553c.069.33.168.65.295.956A7.5 7.5 0 1 1 7 2.017L7 1H6V0h3zM7.5 4.5a.5.5 0 0 1 .492.41L8 5v4.191l2.724 1.362c.102.05.179.132.225.228-.203.22-.387.456-.551.706a.158.158 0 0 1-.038-.007l-.084-.033L7 9.81V5a.5.5 0 0 1 .5-.5z" fill="#63696F" fill-rule="nonzero"/>
        <circle stroke="#63696F" cx="15" cy="14.5" r="4"/>
        <path d="M15 12.25a.5.5 0 0 1 .5.5v2a.5.5 0 1 1-1 0v-2a.5.5 0 0 1 .5-.5zm0 3.5a.5.5 0 1 1 0 1 .5.5 0 0 1 0-1z" fill="#63696F"/>
    </g>
</svg>
