<svg width="78" height="90" viewBox="0 0 78 90" xmlns="http://www.w3.org/2000/svg" xmlns:xlink="http://www.w3.org/1999/xlink">
    <defs>
        <path id="j3alpkgzra" d="m39 15 25.98 15v30L39 75 13.02 60V30z"/>
        <mask id="ge0g26h1rb" maskContentUnits="userSpaceOnUse" maskUnits="objectBoundingBox" x="0" y="0" width="60" height="60" fill="#fff">
            <use xlink:href="#j3alpkgzra"/>
        </mask>
    </defs>
    <g fill="none" fill-rule="evenodd">
        <use stroke="#63696F" mask="url(#ge0g26h1rb)" stroke-width="2" stroke-dasharray="3,2" xlink:href="#j3alpkgzra"/>
        <path stroke="#0072BC" stroke-width="1.5" d="m64.5 30.5-26 15-25-15M39 75V45.5"/>
        <path d="M39 70.75c.897 0 1.71.364 2.298.952.588.588.952 1.4.952 2.298a3.24 3.24 0 0 1-.952 2.298A3.24 3.24 0 0 1 39 77.25a3.24 3.24 0 0 1-2.298-.952A3.24 3.24 0 0 1 35.75 74c0-.897.364-1.71.952-2.298A3.24 3.24 0 0 1 39 70.75zm25.5-14.5c.897 0 1.71.364 2.298.952.588.588.952 1.4.952 2.298a3.24 3.24 0 0 1-.952 2.298 3.24 3.24 0 0 1-2.298.952 3.24 3.24 0 0 1-2.298-.952 3.24 3.24 0 0 1-.952-2.298c0-.897.364-1.71.952-2.298a3.24 3.24 0 0 1 2.298-.952zm-51 0c.897 0 1.71.364 2.298.952.588.588.952 1.4.952 2.298a3.24 3.24 0 0 1-.952 2.298 3.24 3.24 0 0 1-2.298.952 3.24 3.24 0 0 1-2.298-.952 3.24 3.24 0 0 1-.952-2.298c0-.897.364-1.71.952-2.298a3.24 3.24 0 0 1 2.298-.952zm25.5-14c.897 0 1.71.364 2.298.952.588.588.952 1.4.952 2.298a3.24 3.24 0 0 1-.952 2.298A3.24 3.24 0 0 1 39 48.75a3.24 3.24 0 0 1-2.298-.952 3.24 3.24 0 0 1-.952-2.298c0-.897.364-1.71.952-2.298A3.24 3.24 0 0 1 39 42.25zm25.5-15c.897 0 1.71.364 2.298.952.588.588.952 1.4.952 2.298a3.24 3.24 0 0 1-.952 2.298 3.24 3.24 0 0 1-2.298.952 3.24 3.24 0 0 1-2.298-.952 3.24 3.24 0 0 1-.952-2.298c0-.897.364-1.71.952-2.298a3.24 3.24 0 0 1 2.298-.952zm-51 0c.897 0 1.71.364 2.298.952.588.588.952 1.4.952 2.298a3.24 3.24 0 0 1-.952 2.298 3.24 3.24 0 0 1-2.298.952 3.24 3.24 0 0 1-2.298-.952 3.24 3.24 0 0 1-.952-2.298c0-.897.364-1.71.952-2.298a3.24 3.24 0 0 1 2.298-.952zM39 12.75c.897 0 1.71.364 2.298.952.588.588.952 1.4.952 2.298a3.24 3.24 0 0 1-.952 2.298A3.24 3.24 0 0 1 39 19.25a3.24 3.24 0 0 1-2.298-.952A3.24 3.24 0 0 1 35.75 16c0-.897.364-1.71.952-2.298A3.24 3.24 0 0 1 39 12.75z" stroke="#0072BC" stroke-width="1.5" fill="#B3EBF7"/>
    </g>
</svg>
