<svg width="24" height="24" viewBox="0 0 24 24" xmlns="http://www.w3.org/2000/svg">
    <g fill="#63696F" fill-rule="nonzero">
        <path d="M10 20a7.5 7.5 0 0 1-.5-14.984V4h-1V3h3v1h-1v1.016a7.502 7.502 0 0 1 6.97 6.805 7.678 7.678 0 0 0-.994.13 6.5 6.5 0 1 0-3.175 6.15v1.135A7.47 7.47 0 0 1 10 20zm0-12.5a.5.5 0 0 1 .492.41L10.5 8v4.191l2.724 1.362c.138.07.23.194.263.335a2.12 2.12 0 0 0-.15.479.496.496 0 0 1-.477.113l-.084-.033L9.5 12.81V8a.5.5 0 0 1 .5-.5z"/>
        <path d="M18.056 12.8c1.986 0 3.634.788 3.749 1.858l.006.12v4.444c0 1.13-1.695 1.978-3.755 1.978-1.933 0-3.55-.747-3.738-1.784l-.016-.121-.002-.073v-4.444c0-1.13 1.696-1.978 3.756-1.978zm0 .2c-1.891 0-3.438.738-3.55 1.67l-.006.108v4.444l.002.065c.066.915 1.515 1.654 3.334 1.71l.22.003.216-.003c1.791-.054 3.225-.77 3.333-1.666l.006-.109v-4.444c0-.982-1.592-1.778-3.555-1.778z"/>
        <path d="M18.056 12.9c1 0 1.904.204 2.558.531.342.171.617.376.805.603.158.191.256.398.284.613l.008.13v4.445c0 .263-.102.515-.292.744-.188.227-.463.432-.805.603-.654.327-1.559.531-2.558.531-.976 0-1.86-.194-2.511-.508a2.593 2.593 0 0 1-.812-.579 1.263 1.263 0 0 1-.313-.596l-.018-.13-.002-4.51c0-.262.102-.514.292-.743.188-.227.463-.432.805-.603.655-.327 1.559-.531 2.559-.531zm3.028 5.159c-.65.49-1.763.819-3.028.819-1.263 0-2.372-.327-3.012-.805l.246 1.596.106.09c.152.117.347.225.574.32.543.227 1.273.377 2.086.377.815 0 1.544-.15 2.086-.382.28-.12.51-.263.673-.418.146-.14.237-.29.252-.443zm.005-2.227c-.65.493-1.764.824-3.033.824s-2.382-.33-3.012-.804l.246 1.595.106.09c.152.116.347.225.574.32.543.227 1.273.376 2.086.376.815 0 1.544-.15 2.086-.381.28-.12.51-.263.673-.418.146-.14.237-.29.252-.444zm-3.033-2.288c-.83 0-1.57.155-2.114.388-.286.123-.517.267-.675 1.27.158.155.389.298.675.421.544.233 1.285.388 2.114.388s1.57-.155 2.113-.388c.286-.123.517-.266.676-1.27a2.226 2.226 0 0 0-.676-.42c-.544-.234-1.284-.389-2.113-.389z" stroke="#63696F" stroke-width=".2"/>
    </g>
</svg>
