<svg width="24" height="24" viewBox="0 0 24 24" xmlns="http://www.w3.org/2000/svg">
    <g fill="#63696F" fill-rule="evenodd">
        <path d="M11 3c4.32 0 7.84 1.712 7.995 3.853L19 7v3.514l-1 1 .002-2.577.014-.014C16.656 10.161 14.024 11 11 11c-2.903 0-5.445-.773-6.847-1.93l-.154-.133v3.027l.004.11C4.108 13.53 7.15 15 11 15c1.564 0 2.99-.242 4.141-.625l-1.382 1.38C12.9 15.915 11.97 16 11 16c-2.904 0-5.446-.774-6.848-1.931l-.153-.132v3.027l.004.11C4.108 18.53 7.15 20 11 20c2.268 0 4.246-.508 5.515-1.22v1.118C15.08 20.58 13.138 21 11 21c-4.32 0-7.84-1.712-7.995-3.853L3 17V7c0-2.21 3.582-4 8-4zm0 1C7.063 4 4 5.532 4 7s3.063 3 7 3 7-1.532 7-3-3.063-3-7-3z" fill-rule="nonzero"/>
        <path d="m15 16 4-4 4 4h-2.5v4.5h-3V16H15z"/>
    </g>
</svg>
