<svg width="24" height="24" viewBox="0 0 24 24" xmlns="http://www.w3.org/2000/svg">
    <g fill="none" fill-rule="evenodd">
        <path d="M10.3 2.282a1 1 0 0 1 .2.6v18a1 1 0 0 1-1.6.8l-6-4.5a1 1 0 0 1-.4-.8v-9a1 1 0 0 1 .4-.8l6-4.5a1 1 0 0 1 1.4.2zm-2.8 8.6a1 1 0 1 0 0 2 1 1 0 0 0 0-2z" fill="#63696F"/>
        <path d="M10.5 3.882h5a1 1 0 0 1 1 1v14a1 1 0 0 1-1 1h-5a1 1 0 0 1-1-1v-14a1 1 0 0 1 1-1z" stroke="#63696F"/>
        <path d="M18.8 8.306a.3.3 0 0 1 .212.088l3.276 3.276a.3.3 0 0 1 0 .424l-3.276 3.276a.3.3 0 0 1-.512-.212v-1.776h-5v-3h5V8.606a.3.3 0 0 1 .3-.3z" fill="#63696F"/>
    </g>
</svg>
