<?xml version="1.0" encoding="UTF-8"?>
<svg width="24px" height="24px" viewBox="0 0 24 24" version="1.1" xmlns="http://www.w3.org/2000/svg" xmlns:xlink="http://www.w3.org/1999/xlink">
    <!-- Generator: sketchtool 57.1 (101010) - https://sketch.com -->
    <title>6492A7E4-76D8-4C83-8E45-21E9D3D22AA2</title>
    <desc>Created with sketchtool.</desc>
    <g id="GUI-Design-1" stroke="none" stroke-width="1" fill="none" fill-rule="evenodd">
        <g id="010-homepage_020-hide-menu_040-expand-submenu" transform="translate(-20.000000, -589.000000)">
            <g id="Group-25">
                <g id="menu">
                    <g id="item" transform="translate(20.000000, 589.000000)">
                        <g id="ico_device_managment">
                            <g id="Group-15" transform="translate(3.500000, 5.500000)">
                                <g id="Group-12">
                                    <rect id="Rectangle" stroke="#FFFFFF" x="0.5" y="0.5" width="16" height="3" rx="1"></rect>
                                    <path d="M12,1.5 L12,2.5 L11,2.5 L11,1.5 L12,1.5 Z M14.5,1.5 L14.5,2.5 L13.5,2.5 L13.5,1.5 L14.5,1.5 Z" id="Combined-Shape" fill="#FFFFFF"></path>
                                </g>
                                <g id="Group-12" transform="translate(0.000000, 4.500000)">
                                    <rect id="Rectangle" stroke="#FFFFFF" stroke-width="0.8" x="0.4" y="0.4" width="16.2" height="3.2" rx="1"></rect>
                                    <path d="M12,1.5 L12,2.5 L11,2.5 L11,1.5 L12,1.5 Z M14.5,1.5 L14.5,2.5 L13.5,2.5 L13.5,1.5 L14.5,1.5 Z" id="Combined-Shape" fill="#FFFFFF"></path>
                                </g>
                                <g id="Group-12" transform="translate(0.000000, 9.000000)">
                                    <rect id="Rectangle" stroke="#FFFFFF" x="0.5" y="0.5" width="16" height="3" rx="1"></rect>
                                    <path d="M12,1.5 L12,2.5 L11,2.5 L11,1.5 L12,1.5 Z M14.5,1.5 L14.5,2.5 L13.5,2.5 L13.5,1.5 L14.5,1.5 Z" id="Combined-Shape" fill="#FFFFFF"></path>
                                </g>
                            </g>
                        </g>
                    </g>
                </g>
            </g>
        </g>
    </g>
</svg>