<svg width="24" height="24" viewBox="0 0 24 24" xmlns="http://www.w3.org/2000/svg">
    <g fill="none" fill-rule="evenodd">
        <path d="m11.664 2.39.868.55a14.798 14.798 0 0 0 3.32 1.624c.831.29 1.713.409 2.591.35l1.496-.136.074 1.508c.185 3.73-.424 6.968-1.686 9.525-1.353 2.74-3.446 4.705-6.128 5.689h-.833c-2.625-.933-4.703-2.844-6.076-5.623-1.237-2.524-1.882-5.78-1.78-9.667l.039-1.487 1.489.077a8.96 8.96 0 0 0 2.958-.302 8.358 8.358 0 0 0 2.864-1.484l.804-.625z" stroke="#FFF"/>
        <path d="m11.775 4.788.1.06v7.715h5.581c-.233.852-.53 1.648-.89 2.378-1.085 2.194-2.662 3.732-4.69 4.576l-.001-6.954H6.14c-.466-1.7-.692-3.634-.674-5.78h.152c.983 0 1.96-.132 2.907-.393l.021-.005a10.262 10.262 0 0 0 3.23-1.597z" fill="#FFF"/>
    </g>
</svg>
