<svg width="24" height="24" viewBox="0 0 24 24" xmlns="http://www.w3.org/2000/svg">
    <g fill="none" fill-rule="evenodd">
        <path d="M18 9h3v12h-3V9zm-5 3h3v9h-3v-9zm-5 3h3v6H8v-6zm-5 2h3v4H3v-4z" fill="#FFF"/>
        <path d="M6.6 3.417V8.4h4.983a4.585 4.585 0 0 1-1.33 2.853A4.586 4.586 0 0 1 7 12.6c-1.27 0-2.42-.515-3.253-1.347A4.586 4.586 0 0 1 2.4 8c0-1.27.515-2.42 1.347-3.253A4.585 4.585 0 0 1 6.6 3.417z" stroke="#FFF" stroke-width=".8"/>
        <path d="M12 7a4 4 0 0 0-4-4v4h4z" fill="#FFFDFD"/>
    </g>
</svg>
