<svg width="24" height="24" viewBox="0 0 24 24" xmlns="http://www.w3.org/2000/svg">
    <g fill="none" fill-rule="evenodd">
        <path d="M3.434 6.078c-1.209 1.515-2.196 5.894 3.449 11.539s10.024 4.657 11.539 3.45c.933-.691 1.855-1.971 1.19-2.994-.434-.864-3.744-2.45-4.608-1.953-.983.617-.848.633-1.445.785-.987.008-2.007-.478-3.746-2.218-1.74-1.74-2.226-2.759-2.218-3.746.152-.597.168-.462.785-1.445.498-.864-1.089-4.174-1.953-4.608-1.023-.665-2.303.257-2.993 1.19z" fill="#FFF"/>
        <path d="M21.5 12.41A9.41 9.41 0 0 0 12.09 3M17.318 12.41a5.228 5.228 0 0 0-5.228-5.228" stroke="#FFF" stroke-width="1.3" stroke-linecap="round"/>
    </g>
</svg>
