<svg width="24" height="24" viewBox="0 0 24 24" xmlns="http://www.w3.org/2000/svg">
    <g fill="none" fill-rule="evenodd">
        <path d="M14.058 3.236A9 9 0 1 0 21 12" stroke="#FFF" stroke-linecap="round"/>
        <path fill="#FFF" d="m17 9.5-2.939 1.545.561-3.272-2.377-2.318 3.286-.478L17 2l1.47 2.977 3.285.478-2.377 2.318.56 3.272zM9 12.534l-2.057 1.298.598-2.358-1.87-1.556L8.1 9.76 9 7.5l.901 2.26 2.428.158-1.87 1.556.598 2.358zM14 16.876l-1.176.742.343-1.347-1.07-.889 1.388-.091L14 14l.515 1.291 1.387.091-1.069.889.343 1.347z"/>
    </g>
</svg>
