<svg width="24" height="24" viewBox="0 0 24 24" xmlns="http://www.w3.org/2000/svg">
    <g fill="none" fill-rule="evenodd">
        <path d="m14.065 14.362.235.065a6.22 6.22 0 0 0 2.124.16l2.92 2.595a1.886 1.886 0 1 1-2.662 2.662l-3.717-4.182 1.1-1.3zM5.282 4.368 8.02 5.691l.092 1.506 1.496 1.33c.006.287.032.574.077.86l.057.302-1.19 1.007-1.854-2.085-1.506-.092-1.323-2.737 1.414-1.414z" stroke="#FFF" stroke-width=".8"/>
        <path d="M20.763 6.404a5.218 5.218 0 0 1-6.93 6.696l-4.781 5.649a2.76 2.76 0 1 1-3.89-3.89l5.792-4.903a5.218 5.218 0 0 1 6.858-6.503l-4.12 4.12 2.952 2.951 4.12-4.12zM8.174 15.736a1.5 1.5 0 1 0-2.12 2.121 1.5 1.5 0 0 0 2.12-2.121z" fill="#FFF"/>
    </g>
</svg>
