<svg width="24" height="24" viewBox="0 0 24 24" xmlns="http://www.w3.org/2000/svg">
    <g fill="#FFF" fill-rule="evenodd">
        <path d="M10.5-1.125c4.418 0 8 2.239 8 5 0 1.16-.632 2.228-1.694 3.077a7.962 7.962 0 0 1 1.686 4.567h.008v.8h-.012a8.006 8.006 0 0 1-.153 1.182h-.91c.089-.383.148-.778.172-1.182l-3.103.001a14.655 14.655 0 0 1-.404 3.086c.229.071.451.15.667.235l.524.526H14.5l.002.137a9.29 9.29 0 0 0-.602-.213l-.018.056c-.322 1.019-.756 1.882-1.268 2.52a7.103 7.103 0 0 0 1.888-.913v1.05A7.953 7.953 0 0 1 11 19.86v.16h-.8v-.15a7.977 7.977 0 0 1-5.544-2.532c-.91.721-1.445 1.607-1.445 2.537 0 2.28 3.214 4.289 7.289 4.289 3.061 0 5.636-1.133 6.728-2.664h.84c-1.08 1.964-4.06 3.375-7.568 3.375-4.418 0-8-2.239-8-5 0-1.16.632-2.228 1.694-3.077a7.961 7.961 0 0 1-1.682-4.478H2.5v-.8c.083-1.72.7-3.298 1.694-4.569C3.132 6.103 2.5 5.035 2.5 3.875c0-2.761 3.582-5 8-5zm-.3 16.715c-.816.02-1.596.12-2.317.287l-.097.024c.466 1.498 1.173 2.6 1.952 3.045.152.016.307.027.462.034v-3.39zm.8.006v3.373a7.15 7.15 0 0 0 .263-.023c.778-.445 1.485-1.547 1.951-3.045A11.376 11.376 0 0 0 11 15.596zm-3.9.496-.153.048a8.33 8.33 0 0 0-1.545.691 7.105 7.105 0 0 0 2.983 1.835c-.52-.648-.96-1.531-1.285-2.574zm-.594-3.772H3.403a7.077 7.077 0 0 0 1.522 3.97 9.027 9.027 0 0 1 1.986-.885 14.59 14.59 0 0 1-.405-3.085zm3.694-.001-2.982.001c.03 1.043.165 2.022.378 2.895a12.215 12.215 0 0 1 2.604-.337V12.32zm.8 0v2.566c.844.032 1.651.146 2.404.33a13.94 13.94 0 0 0 .378-2.895L11 12.32zM4.925 7.461l-.11.143a7.076 7.076 0 0 0-1.417 3.915h3.106a14.7 14.7 0 0 1 .406-3.175 9.062 9.062 0 0 1-1.985-.883zm2.671 1.074-.043.18a14.153 14.153 0 0 0-.338 2.804H10.2V8.872a12.219 12.219 0 0 1-2.603-.337zm8.479-1.075-.011.008a9.078 9.078 0 0 1-1.975.877c.239.964.382 2.038.407 3.174h3.106a7.078 7.078 0 0 0-1.527-4.059zm-2.67 1.075-.225.053c-.688.152-1.42.248-2.18.277v2.654h2.785a14.035 14.035 0 0 0-.38-2.984zM10.198 4.77a7.17 7.17 0 0 0-.411.03l-.05.004c-.779.445-1.486 1.547-1.952 3.045.748.182 1.56.29 2.413.311V4.77zm.801.011v3.373c.78-.032 1.525-.138 2.215-.304-.467-1.5-1.174-2.6-1.953-3.046A8.107 8.107 0 0 0 11 4.78zm-2.614.301-.177.059a7.114 7.114 0 0 0-2.807 1.776c.5.293 1.071.544 1.698.742.324-1.044.765-1.927 1.286-2.577zm4.229.002.021.026c.511.647.944 1.52 1.264 2.548a8.36 8.36 0 0 0 1.698-.74 7.105 7.105 0 0 0-2.983-1.834zM10.5-.414c-4.075 0-7.289 2.009-7.289 4.289 0 .93.535 1.816 1.445 2.538A7.974 7.974 0 0 1 10.5 3.875c2.306 0 4.384.976 5.844 2.537.91-.721 1.445-1.607 1.445-2.537 0-2.28-3.214-4.289-7.289-4.289z" fill-rule="nonzero"/>
        <path d="M19.167 14.167v.75c.245.064.475.16.687.285l.532-.53.942.942-.53.531c.125.213.222.444.285.688h.75v1.334h-.75a2.65 2.65 0 0 1-.285.687l.53.532-.942.942-.532-.53a2.65 2.65 0 0 1-.686.284l-.001.751h-1.334v-.75a2.65 2.65 0 0 1-.688-.285l-.53.53-.943-.942.53-.532a2.65 2.65 0 0 1-.284-.686l-.751-.001v-1.334h.75a2.65 2.65 0 0 1 .285-.688l-.53-.53.942-.943.531.53a2.65 2.65 0 0 1 .688-.285v-.75h1.334zm-.667 2a1.333 1.333 0 1 0 0 2.666 1.333 1.333 0 0 0 0-2.666z"/>
    </g>
</svg>
