<svg width="90" height="90" viewBox="0 0 90 90" xmlns="http://www.w3.org/2000/svg">
    <g transform="translate(10 11.58)" fill="none" fill-rule="evenodd">
        <path d="M62 15.832a2 2 0 0 1 .732 2.732l-17 29.445-3.464-2 17-29.445A2 2 0 0 1 62 15.832zM6 15.832a2 2 0 0 0-.732 2.732l17 29.445 3.464-2-17-29.445A2 2 0 0 0 6 15.832z" stroke="#63696F" fill="#FFF"/>
        <rect stroke="#63696F" fill="#FFF" x=".5" y="40.92" width="69" height="19" rx="5"/>
        <path d="M69.473 55.92a4.486 4.486 0 0 1-1.291 2.682A4.486 4.486 0 0 1 65 59.92H5a4.486 4.486 0 0 1-3.182-1.318 4.486 4.486 0 0 1-1.29-2.682z" stroke="#DEE5EC" fill="#DEE5EC"/>
        <g transform="translate(21.04)">
            <g stroke="#0072BC" stroke-linecap="round" stroke-width="2">
                <path d="M18.236 22.144a6.754 6.754 0 0 0-9.552 0M22.578 17.802c-5.036-5.036-13.2-5.036-18.236 0"/>
                <path d="M26.92 13.46C19.486 6.026 7.434 6.026 0 13.46"/>
            </g>
            <circle fill="#0072BC" cx="13.46" cy="26.92" r="1.842"/>
        </g>
        <path d="M62 48.67c.483 0 .92.196 1.237.513.317.317.513.754.513 1.237 0 .484-.196.921-.513 1.238A1.745 1.745 0 0 1 62 52.17c-.483 0-.92-.196-1.237-.512a1.745 1.745 0 0 1-.513-1.238c0-.483.196-.92.513-1.237A1.745 1.745 0 0 1 62 48.67zm-7 0c.483 0 .92.196 1.237.513.317.317.513.754.513 1.237 0 .484-.196.921-.513 1.238A1.745 1.745 0 0 1 55 52.17c-.483 0-.92-.196-1.237-.512a1.745 1.745 0 0 1-.513-1.238c0-.483.196-.92.513-1.237A1.745 1.745 0 0 1 55 48.67zm-7 0c.483 0 .92.196 1.237.513.317.317.513.754.513 1.237 0 .484-.196.921-.513 1.238A1.745 1.745 0 0 1 48 52.17c-.483 0-.92-.196-1.237-.512a1.745 1.745 0 0 1-.513-1.238c0-.483.196-.92.513-1.237A1.745 1.745 0 0 1 48 48.67z" stroke="#63696F" stroke-width=".5" fill="#B3EBF7"/>
        <rect stroke="#63696F" x=".5" y="40.92" width="69" height="19" rx="5"/>
    </g>
</svg>
