<svg width="24" height="24" viewBox="0 0 24 24" xmlns="http://www.w3.org/2000/svg">
    <g stroke="#FFF" fill="none" fill-rule="evenodd">
        <path d="M13.5 3.5h-3v2.163l-.357.106c-.43.128-.842.3-1.235.512l-.327.177-.264-.263L7.05 4.929 4.93 7.05l1.53 1.53-.178.328a6.457 6.457 0 0 0-.512 1.235l-.106.357H3.5v3l2.163.001.106.357c.128.429.3.842.512 1.234l.178.328-.264.264-1.266 1.266L7.05 19.07l1.53-1.53.328.178c.392.213.806.384 1.235.512l.357.106V20.5h3l.001-2.163.357-.106c.429-.128.842-.3 1.234-.512l.328-.178.264.264 1.266 1.266 2.121-2.121-1.53-1.53.178-.328c.213-.392.384-.805.512-1.234l.106-.357h.373l1.79-.001v-3h-2.163l-.106-.357a6.457 6.457 0 0 0-.512-1.235l-.178-.328.264-.263 1.266-1.267L16.95 4.93l-1.53 1.53-.328-.178a6.457 6.457 0 0 0-1.234-.512l-.357-.106V5.29L13.5 3.5z"/>
        <circle cx="12" cy="12" r="3.5"/>
    </g>
</svg>
