<?xml version="1.0" encoding="UTF-8"?>
<svg width="24px" height="24px" viewBox="0 0 24 24" version="1.1" xmlns="http://www.w3.org/2000/svg" xmlns:xlink="http://www.w3.org/1999/xlink">
    <!-- Generator: sketchtool 57.1 (101010) - https://sketch.com -->
    <title>F5EEE094-A579-46A0-A432-38E3348BDB9A</title>
    <desc>Created with sketchtool.</desc>
    <g id="GUI-Design-1" stroke="none" stroke-width="1" fill="none" fill-rule="evenodd">
        <g id="010-homepage_020-hide-menu_040-expand-submenu" transform="translate(-20.000000, -509.000000)" fill="#FFFFFF">
            <g id="Group-25">
                <g id="menu">
                    <g id="item" transform="translate(20.000000, 509.000000)">
                        <g id="ico_upnp">
                            <path d="M2.75472368,9.44441935 L2.75472368,13.0532781 C2.75472368,14.1221501 3.09549211,14.8189711 4.05574386,14.8189711 C4.96557488,14.8189711 5.31919882,14.1935694 5.35390209,13.2189082 L5.35677368,13.0532781 L5.35677368,9.44441935 L6.61137193,9.44441935 L6.61137193,13.440729 C6.61137193,15.1133176 5.66651053,15.810515 4.05561842,15.810515 C2.52161201,15.810515 1.57480504,15.1660328 1.50424297,13.6294205 L1.5,13.440729 L1.5,9.44441935 L2.75472368,9.44441935 Z M15.4556247,10.9777151 C16.5003039,10.9777151 16.9860213,11.6766198 17.0319813,12.6362211 L17.0356011,12.7898397 L17.0356011,15.7017616 L15.8274344,15.7017616 L15.8271239,13.1362364 C15.8230224,12.5792749 15.7671523,11.9069257 15.0528993,11.9069257 C14.2338174,11.9069257 14.008698,12.7498306 13.9862128,13.3393084 L13.9842686,13.4404801 L13.9842686,15.7016265 L12.7916274,15.7016265 L12.7916274,11.0862195 L13.92208,11.0862195 L13.92208,11.7056932 L13.9377212,11.7056932 C14.3249212,11.179073 14.8360256,10.9777151 15.4556247,10.9777151 Z M9.44607,9.44441742 C10.8090472,9.44441742 12.0481296,9.83161742 12.0481296,11.3340051 C12.0481296,12.7292964 11.0808308,13.2711982 9.81417135,13.3139343 L9.64731211,13.3167069 L9.12069193,13.3167069 L9.12069193,15.7018832 L7.86609368,15.7018832 L7.86609368,9.44441742 L9.44607,9.44441742 Z M19.7925861,9.44441742 C21.1555632,9.44441742 22.4101615,9.83161742 22.4101615,11.3340051 C22.4101615,12.7292964 21.4287281,13.2711982 20.1608908,13.3139343 L19.9939536,13.3167069 L19.467208,13.3167069 L19.467208,15.7018832 L18.2128606,15.7018832 L18.2128606,9.44441742 L19.7925861,9.44441742 Z M9.55432351,10.420185 L9.12069193,10.420185 L9.12069193,12.3408139 L9.55432351,12.3408139 C10.1738068,12.3408139 10.7469744,12.1239306 10.7469744,11.4114779 C10.7469744,10.6834902 10.2048384,10.420185 9.55432351,10.420185 Z M19.9010904,10.420185 L19.467208,10.420185 L19.467208,12.3408139 L19.9010904,12.3408139 C20.5360896,12.3408139 21.0936159,12.1239306 21.0936159,11.4114779 C21.0936159,10.6834902 20.5514799,10.420185 19.9010904,10.420185 Z M22.9679416,9.47532549 L23.153,9.97 L23.3551416,9.47532549 L23.4944363,9.47532549 L23.4944363,10.0794088 L23.4015732,10.0794088 L23.4015732,9.55278865 L23.2000898,10.0794088 L23.122617,10.0794088 L22.9212591,9.55278865 L22.9212591,10.0794088 L22.828396,10.0794088 L22.828396,9.47532549 L22.9679416,9.47532549 Z M22.7509386,9.47532839 L22.7509386,9.55279155 L22.5496965,9.55279155 L22.5496965,10.0794117 L22.4722333,10.0794117 L22.4722333,9.55279155 L22.2862658,9.55279155 L22.2862658,9.47532839 L22.7509386,9.47532839 Z M17.7789743,6.50146198 C19.9629182,6.53237777 20.8768638,7.63204005 20.5360857,9.32039532 C20.3501182,8.03475584 19.2040243,7.24495584 17.1129436,7.19853391 C14.975441,7.16749269 12.2650024,7.94202777 9.60087956,9.22753216 C12.4972761,7.52366111 15.5486085,6.45490497 17.7789743,6.50146198 Z" id="Combined-Shape"></path>
                        </g>
                    </g>
                </g>
            </g>
        </g>
    </g>
</svg>