<?xml version="1.0" encoding="UTF-8"?>
<svg width="24px" height="24px" viewBox="0 0 24 24" version="1.1" xmlns="http://www.w3.org/2000/svg" xmlns:xlink="http://www.w3.org/1999/xlink">
    <!-- Generator: sketchtool 57.1 (101010) - https://sketch.com -->
    <title>1A6AFE8B-222F-4524-AA7B-3B961E1F0133</title>
    <desc>Created with sketchtool.</desc>
    <g id="GUI-Design-1" stroke="none" stroke-width="1" fill="none" fill-rule="evenodd">
        <g id="010-homepage_020-hide-menu_040-expand-submenu" transform="translate(-20.000000, -188.000000)" fill="#FFFFFF">
            <g id="Group-25">
                <g id="menu">
                    <g id="item" transform="translate(20.000000, 188.000000)">
                        <g id="ico_wifi_5g">
                            <g id="Group-5" transform="translate(3.000000, 3.000000)">
                                <text id="5G" stroke="#FFFFFF" font-family="Roboto-Medium, Roboto" font-size="9" font-weight="400">
                                    <tspan x="3.37939453" y="16">5G</tspan>
                                </text>
                                <path d="M15.5,3.5 C15.7454599,3.5 15.9496084,3.67687516 15.9919443,3.91012437 L16,4 L16,9 C16,9.27614237 15.7761424,9.5 15.5,9.5 C15.2545401,9.5 15.0503916,9.32312484 15.0080557,9.08987563 L15,9 L15,4 C15,3.72385763 15.2238576,3.5 15.5,3.5 Z M3.5,3.5 C3.74545989,3.5 3.94960837,3.67687516 3.99194433,3.91012437 L4,4 L3.99964823,8.1841129 C3.53807934,8.34423849 3.17579789,8.72396169 3.04438558,9.20510293 C3.02778349,9.1696432 3.01545089,9.13061948 3.00805567,9.08987563 L3,9 L3,4 L3.00805567,3.91012437 C3.05039163,3.67687516 3.25454011,3.5 3.5,3.5 Z M9.5,0 C9.74545989,0 9.94960837,0.176875161 9.99194433,0.410124368 L10,0.5 L9.99990688,8.29629519 C9.70108539,8.41244389 9.42152073,8.56433633 9.1640349,8.75186859 C9.11560566,8.68153862 9.06133048,8.61554593 9.00191085,8.554592 L9,0.5 C9,0.223857625 9.22385763,0 9.5,0 Z M12.5,1.5 C12.7454599,1.5 12.9496084,1.67687516 12.9919443,1.91012437 L13,2 L13.001133,8.21434845 C12.6872355,8.11652218 12.3531408,8.05510331 12.0013927,8.02869212 L12,2 C12,1.72385763 12.2238576,1.5 12.5,1.5 Z M6.5,1.5 C6.74545989,1.5 6.94960837,1.67687516 6.99194433,1.91012437 L7,2 L7,8.101 L6,8.101 L6,2 L6.00805567,1.91012437 C6.05039163,1.67687516 6.25454011,1.5 6.5,1.5 Z M18.5,5 C18.7454599,5 18.9496084,5.17687516 18.9919443,5.41012437 L19,5.5 L19,7.5 C19,7.77614237 18.7761424,8 18.5,8 C18.2545401,8 18.0503916,7.82312484 18.0080557,7.58987563 L18,7.5 L18,5.5 C18,5.22385763 18.2238576,5 18.5,5 Z M0.5,5 C0.745459889,5 0.94960837,5.17687516 0.991944331,5.41012437 L1,5.5 L1,7.5 L0.991944331,7.58987563 C0.94960837,7.82312484 0.745459889,8 0.5,8 C0.254540111,8 0.0503916296,7.82312484 0.00805566941,7.58987563 L0,7.5 L0,5.5 L0.00805566941,5.41012437 C0.0503916296,5.17687516 0.254540111,5 0.5,5 Z" id="Combined-Shape" fill-rule="nonzero"></path>
                            </g>
                        </g>
                    </g>
                </g>
            </g>
        </g>
    </g>
</svg>