<svg width="24" height="24" viewBox="0 0 24 24" xmlns="http://www.w3.org/2000/svg">
    <g fill="#FFF" fill-rule="evenodd">
        <text font-family="Roboto-Medium, Roboto" font-size="9" font-weight="400" transform="translate(3 3)">
                                    <tspan x=".065" y="16.5">2.4G</tspan>
                                </text>
        <path d="M9.5 4.5a.5.5 0 0 1 .492.41L10 5v9l-.008.09a.5.5 0 0 1-.94.131 2.349 2.349 0 0 0-.05-.278L9 5l.008-.09A.5.5 0 0 1 9.5 4.5zm3-1.5a.5.5 0 0 1 .492.41L13 3.5v8.266a1.5 1.5 0 0 0-.582.529l-.418.652V3.5a.5.5 0 0 1 .5-.5zm3 1.5a.5.5 0 0 1 .492.41L16 5l.002 7.225a1.5 1.5 0 0 0-1.001-.608L15 5a.5.5 0 0 1 .5-.5zm-9 2a.5.5 0 0 1 .492.41L7 7l.001 4.743a3.945 3.945 0 0 0-1-.212L6 7l.008-.09A.5.5 0 0 1 6.5 6.5zm12 0a.5.5 0 0 1 .492.41L19 7v4.515l-.093-.001c-.314 0-.617.028-.907.085V7a.5.5 0 0 1 .5-.5zm3 1.5a.5.5 0 0 1 .492.41L22 8.5v2a.5.5 0 0 1-.992.09L21 10.5v-2a.5.5 0 0 1 .5-.5zm-18 0a.5.5 0 0 1 .492.41L4 8.5v2l-.008.09a.5.5 0 0 1-.984 0L3 10.5v-2l.008-.09A.5.5 0 0 1 3.5 8z" fill-rule="nonzero"/>
    </g>
</svg>
